<?xml version="1.0" encoding="utf-8"?>
<svg viewBox="169.994 97.899 105.279 106.267" xmlns="http://www.w3.org/2000/svg">
  <rect x="199.751" y="188.421" width="45.818" height="10.903" style="stroke: rgb(255, 255, 255); fill: rgb(255, 255, 255);"/>
  <rect x="210.476" y="136.713" width="24.038" height="6.747" style="stroke: rgb(255, 255, 255); fill: rgb(255, 255, 255);"/>
  <rect x="200.915" y="140.87" width="44.987" height="6.747" style="stroke: rgb(255, 255, 255); fill: rgb(255, 255, 255);"/>
  <rect x="185.203" y="147.27" width="72.421" height="6.747" style="stroke: rgb(255, 255, 255); fill: rgb(255, 255, 255);"/>
  <rect x="177.306" y="153.506" width="92.206" height="7.578" style="stroke: rgb(255, 255, 255); fill: rgb(255, 255, 255);"/>
  <rect x="214.245" y="103.71" width="15.891" height="95.864" style="stroke: rgb(255, 255, 255); fill: rgb(255, 255, 255);"/>
  <path d="M 272.274 168.576 L 275.273 153.59 L 237.025 134.468 L 237.025 118.23 C 237.025 118.22 237.025 118.21 237.025 118.2 C 237.025 110.908 233.724 104.385 228.534 100.048 L 228.495 100.019 C 226.921 98.699 224.868 97.899 222.633 97.899 C 220.398 97.899 218.35 98.699 216.757 100.034 L 216.771 100.024 C 211.543 104.394 208.242 110.914 208.242 118.21 C 208.242 118.22 208.242 118.23 208.242 118.243 L 208.242 118.243 L 208.242 134.482 L 169.994 153.604 L 172.992 168.591 L 208.337 163.98 L 210.079 182.243 L 193.85 189.199 L 193.85 204.166 L 251.416 204.166 L 251.416 189.199 L 235.187 182.243 L 236.929 163.98 Z M 244.221 193.934 L 244.221 196.956 L 201.045 196.956 L 201.045 193.934 L 217.74 186.781 L 215.437 162.608 L 215.437 155.786 L 178.73 160.574 L 178.13 157.571 L 215.437 138.915 L 215.437 118.224 C 215.437 118.22 215.437 118.21 215.437 118.205 C 215.437 113.125 217.736 108.582 221.352 105.56 L 221.376 105.541 C 221.712 105.258 222.154 105.085 222.629 105.085 C 223.104 105.085 223.544 105.258 223.886 105.541 L 223.88 105.536 C 227.522 108.577 229.824 113.121 229.824 118.2 C 229.824 118.21 229.824 118.215 229.824 118.224 L 229.824 118.224 L 229.824 138.915 L 267.132 157.571 L 266.532 160.574 L 229.824 155.786 L 229.824 162.608 L 227.522 186.781 Z" style=""/>
</svg>